<?xml version="1.0" encoding="utf-8"?>
<!-- Generator: Adobe Illustrator 28.2.0, SVG Export Plug-In . SVG Version: 6.00 Build 0)  -->
<svg version="1.1" id="Layer_1" xmlns="http://www.w3.org/2000/svg" xmlns:xlink="http://www.w3.org/1999/xlink" x="0px" y="0px"
	 viewBox="0 0 1378 838" style="enable-background:new 0 0 1378 838;" xml:space="preserve">
<style type="text/css">
	.st0{fill:none;}
</style>
<path class="st0" d="M531,287c-4.42,0.55-5.91,10.37-6,11c-0.34,2.41-0.21,4.48,0,6c-2.39,0.6-5.21,1.73-6,4
	c-1.02,2.96,2.44,4.87,4,10c2.46,8.1-3.24,13.08,0,17c1.9,2.3,5.58,2.67,9,3c4.87,0.48,5.96-0.95,8,0c4.31,2.02,1.19,9.27,5,16
	c5.59,9.89,21,9.57,21,15c0,2.66-3.71,4.05-3,6c0.83,2.29,6.04,0.6,10,4c2.74,2.35,1.75,4.44,4,7c3.98,4.52,14.09,5.94,19,1
	c5.16-5.19,1.83-14.65,1-17c-1.61-4.58-3.07-4.22-6-10c-4.64-9.14-1.84-11.71-6-18c-4.16-6.3-7.96-5.23-10-11
	c-1.74-4.92,0.47-7.24-2-11c-2.03-3.09-6.23-5.65-10-5c-4.44,0.76-5.57,5.51-8,5c-2.89-0.6-1.23-7.3-6-12c-3.94-3.88-8.01-2.22-10-6
	c-1.61-3.06,0.64-4.96-1-9C536.78,289.99,533.74,286.66,531,287z"/>
<path class="st0" d="M640,283c-3.25,0.91-4.79,5.38-5,6c-0.72,2.18-0.16,2.88-1,4c-1.72,2.29-4.9,0.44-8,2
	c-3.21,1.62-2.04,4.74-7,15c-1.65,3.42-3.07,5.73-5,8c-2.07,2.43-2.77,2.5-4,4c-3.35,4.08-4.63,11.42-2,16c3.26,5.68,9.71,2.22,15,8
	c6.54,7.15,3.8,20.22,3,24c-0.93,4.43-1.64,4.12-3,9c-0.56,2-6.44,23.93,3,31c5.21,3.9,13.9,2.37,14.63,0
	c0.74-2.4-7.15-4.18-9.63-11c-1.89-5.19,1.51-7.37,5-20c2.52-9.12,3.62-18.42,5-30c0.28-2.35,0.47-4.19,1-7
	c2.07-10.97,4.64-11.75,5-17c0.72-10.68-9.26-16.95-6-22c1.19-1.84,2.63-1.19,5-4c0.86-1.02,4.51-5.33,3-10
	C647.77,285.18,643.38,282.05,640,283z"/>
<path class="st0" d="M1269,318c-17.12,2.31-23.68,21.97-24,23c-2.68,8.47-3.24,22.1,4,30c2.69,2.94,6.2,4.8,6,8
	c-0.2,3.17-3.78,3.55-8,8c-6.83,7.19-2.85,11.87-10,20c-1.84,2.09-4.23,4.2-5,8c-0.62,3.06,0.57,3.53,0,6
	c-1.24,5.38-7.29,5.03-10,11c-1.7,3.74,0.02,5.33-2,9c-2.17,3.93-5.11,3.55-7,6c-5.15,6.68,8.4,19.03,5,29
	c-2.65,7.75-12.43,4.95-22,13c-11.33,9.53-12.58,26.03-15,58c-1.72,22.64,0.33,28.97-6,36c-7.34,8.16-19.33,9.89-20,18
	c-0.4,4.79,3.55,7.06,2,11c-2.22,5.65-11.76,4.61-13,9c-1.24,4.36,6.84,10.18,8,11c12.44,8.79,35.41,12.14,49,1
	c5.18-4.25,6.24-8.34,15-42c6.84-26.29,10.38-39.54,16-45c7.17-6.96,10.86-4.71,36-14c24-8.87,36-13.31,45-23
	c1.32-1.42,18.8-20.79,17-45c-0.88-11.77-5.61-15.27-5-30c0.5-12.2,3.9-13.37,3-24c-0.48-5.72-1.61-19-11-27
	c-5.3-4.51-10.83-5.3-11-9c-0.18-3.88,5.84-4.8,7-10c0.99-4.46-2.61-7.47-8-16c-7.61-12.03-5.15-13.49-10-19
	C1293.9,327.75,1283.3,316.07,1269,318z"/>
<path class="st0" d="M914,314c-5.69,4.06-9.22,11.9-7,15c1.16,1.62,3.09,0.84,5,3c1.76,1.99,1.04,3.69,2,7c1.25,4.28,4.8,9.48,9,10
	c3.07,0.38,4.72-1.98,6-1c1.33,1.01-0.14,3.74-1,11c-0.54,4.59-0.17,5.31-1,8c-0.85,2.75-1.71,5.52-4,7c-3.3,2.13-5.79-0.84-12,0
	c-0.87,0.12-7.63,1.13-11,6c-2.2,3.17-1.14,5.34-2,10c-2.22,11.97-13.26,19.51-14,20c-6.97,4.62-11.62,3.3-14,8
	c-1.67,3.29-1.65,8.42,1,11c5.31,5.18,16.36-4.61,23,0c7.19,4.99,5.99,24.63-3,31c-4.58,3.24-9.39,1.78-10,4
	c-0.96,3.52,9.71,12.47,21,12c10.08-0.42,20.16-8.35,23-18c4.07-13.83-9.27-22.59-4-34c2.69-5.82,8.46-8.53,18-13
	c15.19-7.12,19.95-3.33,26-9c11.24-10.53,5.21-33.4,4-38c-1.96-7.44-4.81-18.24-14-24c-7-4.38-12.41-2.54-16-8
	c-3.54-5.4-0.29-10.28-5-16c-1.01-1.23-3.7-4.08-8-5C919.99,309.72,915.18,313.15,914,314z"/>
<path class="st0" d="M17,259c8.71-11.81,34.93-47.35,76-50c1.86-0.12,46.73-2.28,71,32c15.7,22.18,13.7,46.79,13,53
	c-4.45,39.73-36.06,47.04-57,84c-30.58,53.98-17.85,134.96,21,178c16.88,18.7,21.95,11.7,80,47c56.06,34.09,85.14,51.78,107,84
	c24.88,36.68,47.88,103.2,21,135c-20.14,23.83-70.37,15.54-170-2c-93.1-16.39-140.12-25.14-163-52c-32.25-37.85-12.38-72.99-11-194
	C7.03,395-34.83,329.26,17,259z"/>
<path class="st0" d="M251,225c-25.02,4.52-37.11,34.06-42,46c-8.31,20.3-3.5,26.1-12,46c-9.21,21.55-21.3,29.82-29,40
	c-29.7,39.25-12.69,131.36,37,164c25.77,16.93,34.89,1.15,117,13c65.8,9.5,86.9,23.52,104,9c21.48-18.24,19.64-67.05-1-83
	c-9.19-7.1-15.94-2.92-40-7c-24.53-4.16-53.96-9.16-67-28c-19.01-27.48,8.95-66.9-13-86c-8.21-7.14-18.67-7.33-20-15
	c-1.46-8.43,10.49-12.13,17-25c9.36-18.51,3.73-48.57-16-64C282.49,232.26,268.2,221.89,251,225z"/>
<path class="st0" d="M35,18c-7.72-1.41-16.38,3.46-18,11c-1.91,8.88,6.57,18.57,16,18c8.74-0.53,15.75-9.71,14-18
	C45.76,23.14,40.41,18.99,35,18z"/>
</svg>
